{"title":"The Lone Ranger 2013 BRRip AAC x264-SSDD","uid":8992547,"size":629265657,"categoryP":"video","categoryS":"movies","magnet":"?xt=urn:btih:4964957f4ee137805e0f7f069573e2cecdbb3674&amp;dn=The+Lone+Ranger+2013+BRRip+AAC+x264-SSDD&amp;tr=udp%3A%2F%2Ftracker.openbittorrent.com%3A80&amp;tr=udp%3A%2F%2Fopen.demonii.com%3A1337&amp;tr=udp%3A%2F%2Ftracker.coppersurfer.tk%3A6969&amp;tr=udp%3A%2F%2Fexodus.desync.com%3A6969","seeders":2,"leechers":1,"uploader":".BONE.","files":2,"time":1380820702,"description":"IMDB Link - http://www.imdb.com/title/tt1210819/\n\nSource - The Lone Ranger 2013 720p BluRay DTS x264-PHD (Thumbs Up + Respect)\n\nPlot - Native American warrior Tonto recounts the untold tales that transformed John Reid, a man of the law, into a legend of justice.\n\nNOTES - Enjoy.\n\nGeneral\nComplete name                            : The Lone Ranger 2013 BRRip AAC x264-SSDD.mp4\nFormat                                   : MPEG-4\nFormat profile                           : Base Media\nCodec ID                                 : isom\nFile size                                : 600 MiB\nDuration                                 : 2h 29mn\nOverall bit rate mode                    : Variable\nOverall bit rate                         : 561 Kbps\n\nVideo\nID                                       : 1\nFormat                                   : AVC\nFormat/Info                              : Advanced Video Codec\nFormat profile                           : &lt;a class=&quot;__cf_email__&quot; href=&quot;/cdn-cgi/l/email-protection&quot; data-cfemail=&quot;1459757d7a5458273a24&quot;&gt;[email&amp;#160;protected]&lt;/a&gt;&lt;script cf-hash='f9e31' type=&quot;text/javascript&quot;&gt;\n/* &lt;![CDATA[ */!function(){try{var t=&quot;currentScript&quot;in document?document.currentScript:function(){for(var t=document.getElementsByTagName(&quot;script&quot;),e=t.length;e--;)if(t[e].getAttribute(&quot;cf-hash&quot;))return t[e]}();if(t&amp;&amp;t.previousSibling){var e,r,n,i,c=t.previousSibling,a=c.getAttribute(&quot;data-cfemail&quot;);if(a){for(e=&quot;&quot;,r=parseInt(a.substr(0,2),16),n=2;a.length-n;n+=2)i=parseInt(a.substr(n,2),16)^r,e+=String.fromCharCode(i);e=document.createTextNode(e),c.parentNode.replaceChild(e,c)}}}catch(u){}}();/* ]]&gt; */&lt;/script&gt;\nFormat settings, CABAC                   : Yes\nFormat settings, ReFrames                : 4 frames\nCodec ID                                 : avc1\nCodec ID/Info                            : Advanced Video Coding\nDuration                                 : 2h 29mn\nBit rate                                 : 493 Kbps\nMaximum bit rate                         : 1 376 Kbps\nWidth                                    : 720 pixels\nHeight                                   : 304 pixels\nDisplay aspect ratio                     : 2.35:1\nFrame rate mode                          : Constant\nFrame rate                               : 23.976 fps\nColor space                              : YUV\nChroma subsampling                       : 4:2:0\nBit depth                                : 8 bits\nScan type                                : Progressive\nBits/(Pixel*Frame)                       : 0.094\nStream size                              : 527 MiB (88%)\nWriting library                          : x264 core 133 r2334 a3ac64b\n\nAudio\nID                                       : 2\nFormat                                   : AAC\nFormat/Info                              : Advanced Audio Codec\nFormat profile                           : LC\nCodec ID                                 : 40\nDuration                                 : 2h 29mn\nBit rate mode                            : Variable\nBit rate                                 : 64.0 Kbps\nMaximum bit rate                         : 74.7 Kbps\nChannel count                            : 2 channels\nChannel positions                        : Front: L R\nSampling rate                            : 48.0 KHz\nCompression mode                         : Lossy\nStream size                              : 68.5 MiB (11%)","torrent":{"xt":"urn:btih:4964957f4ee137805e0f7f069573e2cecdbb3674","amp;dn":"The+Lone+Ranger+2013+BRRip+AAC+x264-SSDD","amp;tr":["udp%3A%2F%2Ftracker.openbittorrent.com%3A80","udp%3A%2F%2Fopen.demonii.com%3A1337","udp%3A%2F%2Ftracker.coppersurfer.tk%3A6969","udp%3A%2F%2Fexodus.desync.com%3A6969"],"infoHash":"4964957f4ee137805e0f7f069573e2cecdbb3674","infoHashBuffer":{"type":"Buffer","data":[73,100,149,127,78,225,55,128,94,15,127,6,149,115,226,206,205,187,54,116]},"announce":[],"urlList":[]}}